<svg version="1.1" xmlns="http://www.w3.org/2000/svg" xmlns:xlink="http://www.w3.org/1999/xlink" width="1581" height="746"><defs/><g><g transform="translate(-134,-606) scale(1,1)"><rect fill="#C0C0C0" stroke="none" x="871" y="1159" width="159" height="190" opacity="0.2"/></g><g transform="translate(-134,-606) scale(1,1)"><rect fill="#ffffff" stroke="none" x="864" y="1152" width="159" height="190"/></g><g transform="translate(-134,-606) scale(1,1)"><path fill="none" stroke="#000000" d="M 864 1152 L 1023 1152 L 1023 1342 L 864 1342 L 864 1152 Z Z" stroke-miterlimit="10"/></g><g transform="translate(-134,-606) scale(1,1)"><path fill="none" stroke="#000000" d="M 864 1177 L 1023 1177" stroke-miterlimit="10"/></g><g transform="translate(-134,-606) scale(1,1)"><path fill="none" stroke="#000000" d="M 864 1215 L 1023 1215" stroke-miterlimit="10"/></g><g transform="translate(-134,-606) scale(1,1)"><g><path fill="none" stroke="none"/><text fill="#000000" stroke="none" font-family="Arial" font-size="13px" font-style="normal" font-weight="bold" text-decoration="none" x="928.5" y="1171.5">Point</text></g></g><g transform="translate(-134,-606) scale(1,1)"><g><path fill="none" stroke="none"/><text fill="#000000" stroke="none" font-family="Arial" font-size="13px" font-style="normal" font-weight="normal" text-decoration="none" x="869" y="1194.5">-x: int</text></g></g><g transform="translate(-134,-606) scale(1,1)"><g><path fill="none" stroke="none"/><text fill="#000000" stroke="none" font-family="Arial" font-size="13px" font-style="normal" font-weight="normal" text-decoration="none" x="869" y="1209.5">-y: int</text></g></g><g transform="translate(-134,-606) scale(1,1)"><g><path fill="none" stroke="none"/><text fill="#000000" stroke="none" font-family="Arial" font-size="13px" font-style="normal" font-weight="normal" text-decoration="none" x="869" y="1232.5">+Point(x: int, y: int)</text></g></g><g transform="translate(-134,-606) scale(1,1)"><g><path fill="none" stroke="none"/><text fill="#000000" stroke="none" font-family="Arial" font-size="13px" font-style="normal" font-weight="normal" text-decoration="none" x="869" y="1247.5">+Point(point: Point)</text></g></g><g transform="translate(-134,-606) scale(1,1)"><g><path fill="none" stroke="none"/><text fill="#000000" stroke="none" font-family="Arial" font-size="13px" font-style="normal" font-weight="normal" text-decoration="none" x="869" y="1262.5">+~Point()</text></g></g><g transform="translate(-134,-606) scale(1,1)"><g><path fill="none" stroke="none"/><text fill="#000000" stroke="none" font-family="Arial" font-size="13px" font-style="normal" font-weight="normal" text-decoration="none" x="869" y="1277.5">+Print(): void</text></g></g><g transform="translate(-134,-606) scale(1,1)"><g><path fill="none" stroke="none"/><text fill="#000000" stroke="none" font-family="Arial" font-size="13px" font-style="normal" font-weight="normal" text-decoration="none" x="869" y="1292.5">+GetX(): int</text></g></g><g transform="translate(-134,-606) scale(1,1)"><g><path fill="none" stroke="none"/><text fill="#000000" stroke="none" font-family="Arial" font-size="13px" font-style="normal" font-weight="normal" text-decoration="none" x="869" y="1307.5">+SetX(x: int): void</text></g></g><g transform="translate(-134,-606) scale(1,1)"><g><path fill="none" stroke="none"/><text fill="#000000" stroke="none" font-family="Arial" font-size="13px" font-style="normal" font-weight="normal" text-decoration="none" x="869" y="1322.5">+GetY(): int</text></g></g><g transform="translate(-134,-606) scale(1,1)"><g><path fill="none" stroke="none"/><text fill="#000000" stroke="none" font-family="Arial" font-size="13px" font-style="normal" font-weight="normal" text-decoration="none" x="869" y="1337.5">+SetY(y: int): void</text></g></g><g transform="translate(-134,-606) scale(1,1)"><rect fill="#C0C0C0" stroke="none" x="1423" y="647" width="289" height="280" opacity="0.2"/></g><g transform="translate(-134,-606) scale(1,1)"><rect fill="#ffffff" stroke="none" x="1416" y="640" width="289" height="280"/></g><g transform="translate(-134,-606) scale(1,1)"><path fill="none" stroke="#000000" d="M 1416 640 L 1705 640 L 1705 920 L 1416 920 L 1416 640 Z Z" stroke-miterlimit="10"/></g><g transform="translate(-134,-606) scale(1,1)"><path fill="none" stroke="#000000" d="M 1416 665 L 1705 665" stroke-miterlimit="10"/></g><g transform="translate(-134,-606) scale(1,1)"><path fill="none" stroke="#000000" d="M 1416 688 L 1705 688" stroke-miterlimit="10"/></g><g transform="translate(-134,-606) scale(1,1)"><g><path fill="none" stroke="none"/><text fill="#000000" stroke="none" font-family="Arial" font-size="13px" font-style="normal" font-weight="bold" text-decoration="none" x="1540.5" y="659.5">Dessin</text></g></g><g transform="translate(-134,-606) scale(1,1)"><g><path fill="none" stroke="none"/><text fill="#000000" stroke="none" font-family="Arial" font-size="13px" font-style="normal" font-weight="normal" text-decoration="none" x="1421" y="682.5">-figures: map&lt;string, Figure*&gt;</text></g></g><g transform="translate(-134,-606) scale(1,1)"><g><path fill="none" stroke="none"/><text fill="#000000" stroke="none" font-family="Arial" font-size="13px" font-style="normal" font-weight="normal" text-decoration="none" x="1421" y="705.5">+Dessin()</text></g></g><g transform="translate(-134,-606) scale(1,1)"><g><path fill="none" stroke="none"/><text fill="#000000" stroke="none" font-family="Arial" font-size="13px" font-style="normal" font-weight="normal" text-decoration="none" x="1421" y="720.5">+~Dessin()</text></g></g><g transform="translate(-134,-606) scale(1,1)"><g><path fill="none" stroke="none"/><text fill="#000000" stroke="none" font-family="Arial" font-size="13px" font-style="normal" font-weight="normal" text-decoration="none" x="1421" y="735.5">+Print(): void</text></g></g><g transform="translate(-134,-606) scale(1,1)"><g><path fill="none" stroke="none"/><text fill="#000000" stroke="none" font-family="Arial" font-size="13px" font-style="normal" font-weight="normal" text-decoration="none" x="1421" y="750.5">+Add(figure: Figure*): bool</text></g></g><g transform="translate(-134,-606) scale(1,1)"><g><path fill="none" stroke="none"/><text fill="#000000" stroke="none" font-family="Arial" font-size="13px" font-style="normal" font-weight="normal" text-decoration="none" x="1421" y="765.5">+Add(): bool</text></g></g><g transform="translate(-134,-606) scale(1,1)"><g><path fill="none" stroke="none"/><text fill="#000000" stroke="none" font-family="Arial" font-size="13px" font-style="normal" font-weight="normal" text-decoration="none" x="1421" y="780.5">+Remove(name: string): bool</text></g></g><g transform="translate(-134,-606) scale(1,1)"><g><path fill="none" stroke="none"/><text fill="#000000" stroke="none" font-family="Arial" font-size="13px" font-style="normal" font-weight="normal" text-decoration="none" x="1421" y="795.5">+GetFigures(): map&lt;string, Figure*&gt;</text></g></g><g transform="translate(-134,-606) scale(1,1)"><g><path fill="none" stroke="none"/><text fill="#000000" stroke="none" font-family="Arial" font-size="13px" font-style="normal" font-weight="normal" text-decoration="none" x="1421" y="810.5">+SetFigures(figures: map&lt;string, Figure*&gt;): void</text></g></g><g transform="translate(-134,-606) scale(1,1)"><g><path fill="none" stroke="none"/><text fill="#000000" stroke="none" font-family="Arial" font-size="13px" font-style="normal" font-weight="normal" text-decoration="none" x="1421" y="825.5">+GetFigure(name: string): Figure*</text></g></g><g transform="translate(-134,-606) scale(1,1)"><g><path fill="none" stroke="none"/><text fill="#000000" stroke="none" font-family="Arial" font-size="13px" font-style="normal" font-weight="normal" text-decoration="none" x="1421" y="840.5">+Save(link: string): bool</text></g></g><g transform="translate(-134,-606) scale(1,1)"><g><path fill="none" stroke="none"/><text fill="#000000" stroke="none" font-family="Arial" font-size="13px" font-style="normal" font-weight="normal" text-decoration="none" x="1421" y="855.5">+Load(link: string): bool</text></g></g><g transform="translate(-134,-606) scale(1,1)"><g><path fill="none" stroke="none"/><text fill="#000000" stroke="none" font-family="Arial" font-size="13px" font-style="normal" font-weight="normal" text-decoration="none" x="1421" y="870.5">+IsIn(point: Point): bool</text></g></g><g transform="translate(-134,-606) scale(1,1)"><g><path fill="none" stroke="none"/><text fill="#000000" stroke="none" font-family="Arial" font-size="13px" font-style="normal" font-weight="normal" text-decoration="none" x="1421" y="885.5">+Move(point: Point): void</text></g></g><g transform="translate(-134,-606) scale(1,1)"><g><path fill="none" stroke="none"/><text fill="#000000" stroke="none" font-family="Arial" font-size="13px" font-style="normal" font-weight="normal" text-decoration="none" x="1421" y="900.5">+Undo(): void</text></g></g><g transform="translate(-134,-606) scale(1,1)"><g><path fill="none" stroke="none"/><text fill="#000000" stroke="none" font-family="Arial" font-size="13px" font-style="normal" font-weight="normal" text-decoration="none" x="1421" y="915.5">+Redo(): void</text></g></g><g transform="translate(-134,-606) scale(1,1)"><rect fill="#C0C0C0" stroke="none" x="823" y="647" width="212" height="160" opacity="0.2"/></g><g transform="translate(-134,-606) scale(1,1)"><rect fill="#ffffff" stroke="none" x="816" y="640" width="212" height="160"/></g><g transform="translate(-134,-606) scale(1,1)"><path fill="none" stroke="#000000" d="M 816 640 L 1028 640 L 1028 800 L 816 800 L 816 640 Z Z" stroke-miterlimit="10"/></g><g transform="translate(-134,-606) scale(1,1)"><path fill="none" stroke="#000000" d="M 816 665 L 1028 665" stroke-miterlimit="10"/></g><g transform="translate(-134,-606) scale(1,1)"><path fill="none" stroke="#000000" d="M 816 688 L 1028 688" stroke-miterlimit="10"/></g><g transform="translate(-134,-606) scale(1,1)"><g><path fill="none" stroke="none"/><text fill="#000000" stroke="none" font-family="Arial" font-size="13px" font-style="italic" font-weight="bold" text-decoration="none" x="904" y="659.5">Figure</text></g></g><g transform="translate(-134,-606) scale(1,1)"><g><path fill="none" stroke="none"/><text fill="#000000" stroke="none" font-family="Arial" font-size="13px" font-style="normal" font-weight="normal" text-decoration="none" x="821" y="682.5">-name</text></g></g><g transform="translate(-134,-606) scale(1,1)"><g><path fill="none" stroke="none"/><text fill="#000000" stroke="none" font-family="Arial" font-size="13px" font-style="normal" font-weight="normal" text-decoration="none" x="821" y="705.5">#Figure(name: string)</text></g></g><g transform="translate(-134,-606) scale(1,1)"><g><path fill="none" stroke="none"/><text fill="#000000" stroke="none" font-family="Arial" font-size="13px" font-style="normal" font-weight="normal" text-decoration="none" x="821" y="720.5">+~Figure()</text></g></g><g transform="translate(-134,-606) scale(1,1)"><g><path fill="none" stroke="none"/><text fill="#000000" stroke="none" font-family="Arial" font-size="13px" font-style="normal" font-weight="normal" text-decoration="none" x="821" y="735.5">+GetNom(): string</text></g></g><g transform="translate(-134,-606) scale(1,1)"><g><path fill="none" stroke="none"/><text fill="#000000" stroke="none" font-family="Arial" font-size="13px" font-style="normal" font-weight="normal" text-decoration="none" x="821" y="750.5">+SetNom(nom: string): void</text></g></g><g transform="translate(-134,-606) scale(1,1)"><g><path fill="none" stroke="none"/><text fill="#000000" stroke="none" font-family="Arial" font-size="13px" font-style="italic" font-weight="normal" text-decoration="none" x="821" y="765.5">+Print(): void</text></g></g><g transform="translate(-134,-606) scale(1,1)"><g><path fill="none" stroke="none"/><text fill="#000000" stroke="none" font-family="Arial" font-size="13px" font-style="italic" font-weight="normal" text-decoration="none" x="821" y="780.5">+IsIn(point: Point): bool</text></g></g><g transform="translate(-134,-606) scale(1,1)"><g><path fill="none" stroke="none"/><text fill="#000000" stroke="none" font-family="Arial" font-size="13px" font-style="italic" font-weight="normal" text-decoration="none" x="821" y="795.5">+Move(point: Point): void</text></g></g><g transform="translate(-134,-606) scale(1,1)"><rect fill="#C0C0C0" stroke="none" x="503" y="879" width="276" height="220" opacity="0.2"/></g><g transform="translate(-134,-606) scale(1,1)"><rect fill="#ffffff" stroke="none" x="496" y="872" width="276" height="220"/></g><g transform="translate(-134,-606) scale(1,1)"><path fill="none" stroke="#000000" d="M 496 872 L 772 872 L 772 1092 L 496 1092 L 496 872 Z Z" stroke-miterlimit="10"/></g><g transform="translate(-134,-606) scale(1,1)"><path fill="none" stroke="#000000" d="M 496 897 L 772 897" stroke-miterlimit="10"/></g><g transform="translate(-134,-606) scale(1,1)"><path fill="none" stroke="#000000" d="M 496 935 L 772 935" stroke-miterlimit="10"/></g><g transform="translate(-134,-606) scale(1,1)"><g><path fill="none" stroke="none"/><text fill="#000000" stroke="none" font-family="Arial" font-size="13px" font-style="normal" font-weight="bold" text-decoration="none" x="608" y="891.5">Segment</text></g></g><g transform="translate(-134,-606) scale(1,1)"><g><path fill="none" stroke="none"/><text fill="#000000" stroke="none" font-family="Arial" font-size="13px" font-style="normal" font-weight="normal" text-decoration="none" x="501" y="914.5">-p1: Point</text></g></g><g transform="translate(-134,-606) scale(1,1)"><g><path fill="none" stroke="none"/><text fill="#000000" stroke="none" font-family="Arial" font-size="13px" font-style="normal" font-weight="normal" text-decoration="none" x="501" y="929.5">-p2: Point</text></g></g><g transform="translate(-134,-606) scale(1,1)"><g><path fill="none" stroke="none"/><text fill="#000000" stroke="none" font-family="Arial" font-size="13px" font-style="normal" font-weight="normal" text-decoration="none" x="501" y="952.5">+Segment(x1: int, y1: int, x2: int, y2: int)</text></g></g><g transform="translate(-134,-606) scale(1,1)"><g><path fill="none" stroke="none"/><text fill="#000000" stroke="none" font-family="Arial" font-size="13px" font-style="normal" font-weight="normal" text-decoration="none" x="501" y="967.5">+Segment(p1: Point, p2: Point)</text></g></g><g transform="translate(-134,-606) scale(1,1)"><g><path fill="none" stroke="none"/><text fill="#000000" stroke="none" font-family="Arial" font-size="13px" font-style="normal" font-weight="normal" text-decoration="none" x="501" y="982.5">+~Segment()</text></g></g><g transform="translate(-134,-606) scale(1,1)"><g><path fill="none" stroke="none"/><text fill="#000000" stroke="none" font-family="Arial" font-size="13px" font-style="normal" font-weight="normal" text-decoration="none" x="501" y="997.5">+GetP1(): Point</text></g></g><g transform="translate(-134,-606) scale(1,1)"><g><path fill="none" stroke="none"/><text fill="#000000" stroke="none" font-family="Arial" font-size="13px" font-style="normal" font-weight="normal" text-decoration="none" x="501" y="1012.5">+SetP1(point: Point): void</text></g></g><g transform="translate(-134,-606) scale(1,1)"><g><path fill="none" stroke="none"/><text fill="#000000" stroke="none" font-family="Arial" font-size="13px" font-style="normal" font-weight="normal" text-decoration="none" x="501" y="1027.5">+GetP2(): Point</text></g></g><g transform="translate(-134,-606) scale(1,1)"><g><path fill="none" stroke="none"/><text fill="#000000" stroke="none" font-family="Arial" font-size="13px" font-style="normal" font-weight="normal" text-decoration="none" x="501" y="1042.5">+SetP2(point: Point): void</text></g></g><g transform="translate(-134,-606) scale(1,1)"><g><path fill="none" stroke="none"/><text fill="#000000" stroke="none" font-family="Arial" font-size="13px" font-style="italic" font-weight="normal" text-decoration="none" x="501" y="1057.5">+Print(): void</text></g></g><g transform="translate(-134,-606) scale(1,1)"><g><path fill="none" stroke="none"/><text fill="#000000" stroke="none" font-family="Arial" font-size="13px" font-style="italic" font-weight="normal" text-decoration="none" x="501" y="1072.5">+IsIn(point: Point): bool</text></g></g><g transform="translate(-134,-606) scale(1,1)"><g><path fill="none" stroke="none"/><text fill="#000000" stroke="none" font-family="Arial" font-size="13px" font-style="italic" font-weight="normal" text-decoration="none" x="501" y="1087.5">+Move(point: Point): void</text></g></g><g transform="translate(-134,-606) scale(1,1)"><path fill="none" stroke="#000000" d="M 756 871 L 833 801" stroke-miterlimit="10"/></g><g transform="translate(-134,-606) scale(1,1)"><path fill="#FFFFFF" stroke="none" d="M 823.6237153805337 820.9018915366042 L 833 801 L 812.2972030992682 808.4427280272123"/></g><g transform="translate(-134,-606) scale(1,1)"><path fill="none" stroke="#000000" d="M 823.6237153805337 820.9018915366042 L 833 801 L 812.2972030992682 808.4427280272123 L 823.6237153805337 820.9018915366042" stroke-miterlimit="10"/></g><g transform="translate(-134,-606) scale(1,1)"><rect fill="#C0C0C0" stroke="none" x="831" y="879" width="251" height="220" opacity="0.2"/></g><g transform="translate(-134,-606) scale(1,1)"><rect fill="#ffffff" stroke="none" x="824" y="872" width="251" height="220"/></g><g transform="translate(-134,-606) scale(1,1)"><path fill="none" stroke="#000000" d="M 824 872 L 1075 872 L 1075 1092 L 824 1092 L 824 872 Z Z" stroke-miterlimit="10"/></g><g transform="translate(-134,-606) scale(1,1)"><path fill="none" stroke="#000000" d="M 824 897 L 1075 897" stroke-miterlimit="10"/></g><g transform="translate(-134,-606) scale(1,1)"><path fill="none" stroke="#000000" d="M 824 935 L 1075 935" stroke-miterlimit="10"/></g><g transform="translate(-134,-606) scale(1,1)"><g><path fill="none" stroke="none"/><text fill="#000000" stroke="none" font-family="Arial" font-size="13px" font-style="normal" font-weight="bold" text-decoration="none" x="920.5" y="891.5">Rectangle</text></g></g><g transform="translate(-134,-606) scale(1,1)"><g><path fill="none" stroke="none"/><text fill="#000000" stroke="none" font-family="Arial" font-size="13px" font-style="normal" font-weight="normal" text-decoration="none" x="829" y="914.5">-p1: Point</text></g></g><g transform="translate(-134,-606) scale(1,1)"><g><path fill="none" stroke="none"/><text fill="#000000" stroke="none" font-family="Arial" font-size="13px" font-style="normal" font-weight="normal" text-decoration="none" x="829" y="929.5">-p2: Point</text></g></g><g transform="translate(-134,-606) scale(1,1)"><g><path fill="none" stroke="none"/><text fill="#000000" stroke="none" font-family="Arial" font-size="13px" font-style="normal" font-weight="normal" text-decoration="none" x="829" y="952.5">+Rectangle(x1: int, y1: int, x2: int, y2: int)</text></g></g><g transform="translate(-134,-606) scale(1,1)"><g><path fill="none" stroke="none"/><text fill="#000000" stroke="none" font-family="Arial" font-size="13px" font-style="normal" font-weight="normal" text-decoration="none" x="829" y="967.5">+Rectangle(p1: Point, p2: Point)</text></g></g><g transform="translate(-134,-606) scale(1,1)"><g><path fill="none" stroke="none"/><text fill="#000000" stroke="none" font-family="Arial" font-size="13px" font-style="normal" font-weight="normal" text-decoration="none" x="829" y="982.5">+~Rectangle()</text></g></g><g transform="translate(-134,-606) scale(1,1)"><g><path fill="none" stroke="none"/><text fill="#000000" stroke="none" font-family="Arial" font-size="13px" font-style="normal" font-weight="normal" text-decoration="none" x="829" y="997.5">+GetP1(): Point</text></g></g><g transform="translate(-134,-606) scale(1,1)"><g><path fill="none" stroke="none"/><text fill="#000000" stroke="none" font-family="Arial" font-size="13px" font-style="normal" font-weight="normal" text-decoration="none" x="829" y="1012.5">+SetP1(point: Point): void</text></g></g><g transform="translate(-134,-606) scale(1,1)"><g><path fill="none" stroke="none"/><text fill="#000000" stroke="none" font-family="Arial" font-size="13px" font-style="normal" font-weight="normal" text-decoration="none" x="829" y="1027.5">+GetP2(): Point</text></g></g><g transform="translate(-134,-606) scale(1,1)"><g><path fill="none" stroke="none"/><text fill="#000000" stroke="none" font-family="Arial" font-size="13px" font-style="normal" font-weight="normal" text-decoration="none" x="829" y="1042.5">+SetP2(point: Point): void</text></g></g><g transform="translate(-134,-606) scale(1,1)"><g><path fill="none" stroke="none"/><text fill="#000000" stroke="none" font-family="Arial" font-size="13px" font-style="italic" font-weight="normal" text-decoration="none" x="829" y="1057.5">+Print(): void</text></g></g><g transform="translate(-134,-606) scale(1,1)"><g><path fill="none" stroke="none"/><text fill="#000000" stroke="none" font-family="Arial" font-size="13px" font-style="italic" font-weight="normal" text-decoration="none" x="829" y="1072.5">+IsIn(point: Point): bool</text></g></g><g transform="translate(-134,-606) scale(1,1)"><g><path fill="none" stroke="none"/><text fill="#000000" stroke="none" font-family="Arial" font-size="13px" font-style="italic" font-weight="normal" text-decoration="none" x="829" y="1087.5">+Move(point: Point): void</text></g></g><g transform="translate(-134,-606) scale(1,1)"><path fill="none" stroke="#000000" d="M 938 871 L 930 801" stroke-miterlimit="10"/></g><g transform="translate(-134,-606) scale(1,1)"><path fill="#FFFFFF" stroke="none" d="M 940.6724610277745 820.2379462420143 L 930 801 L 923.9432873208578 822.1498518085191"/></g><g transform="translate(-134,-606) scale(1,1)"><path fill="none" stroke="#000000" d="M 940.6724610277745 820.2379462420143 L 930 801 L 923.9432873208578 822.1498518085191 L 940.6724610277745 820.2379462420143" stroke-miterlimit="10"/></g><g transform="translate(-134,-606) scale(1,1)"><rect fill="#C0C0C0" stroke="none" x="1127" y="875" width="251" height="220" opacity="0.2"/></g><g transform="translate(-134,-606) scale(1,1)"><rect fill="#ffffff" stroke="none" x="1120" y="868" width="251" height="220"/></g><g transform="translate(-134,-606) scale(1,1)"><path fill="none" stroke="#000000" d="M 1120 868 L 1371 868 L 1371 1088 L 1120 1088 L 1120 868 Z Z" stroke-miterlimit="10"/></g><g transform="translate(-134,-606) scale(1,1)"><path fill="none" stroke="#000000" d="M 1120 893 L 1371 893" stroke-miterlimit="10"/></g><g transform="translate(-134,-606) scale(1,1)"><path fill="none" stroke="#000000" d="M 1120 916 L 1371 916" stroke-miterlimit="10"/></g><g transform="translate(-134,-606) scale(1,1)"><g><path fill="none" stroke="none"/><text fill="#000000" stroke="none" font-family="Arial" font-size="13px" font-style="normal" font-weight="bold" text-decoration="none" x="1218.5" y="887.5">Polygone</text></g></g><g transform="translate(-134,-606) scale(1,1)"><g><path fill="none" stroke="none"/><text fill="#000000" stroke="none" font-family="Arial" font-size="13px" font-style="normal" font-weight="normal" text-decoration="none" x="1125" y="910.5">-points: vector&lt;Point&gt;</text></g></g><g transform="translate(-134,-606) scale(1,1)"><g><path fill="none" stroke="none"/><text fill="#000000" stroke="none" font-family="Arial" font-size="13px" font-style="normal" font-weight="normal" text-decoration="none" x="1125" y="933.5">+Polygone()</text></g></g><g transform="translate(-134,-606) scale(1,1)"><g><path fill="none" stroke="none"/><text fill="#000000" stroke="none" font-family="Arial" font-size="13px" font-style="normal" font-weight="normal" text-decoration="none" x="1125" y="948.5">+~Polygone()</text></g></g><g transform="translate(-134,-606) scale(1,1)"><g><path fill="none" stroke="none"/><text fill="#000000" stroke="none" font-family="Arial" font-size="13px" font-style="normal" font-weight="normal" text-decoration="none" x="1125" y="963.5">+Add(point: Point): void</text></g></g><g transform="translate(-134,-606) scale(1,1)"><g><path fill="none" stroke="none"/><text fill="#000000" stroke="none" font-family="Arial" font-size="13px" font-style="normal" font-weight="normal" text-decoration="none" x="1125" y="978.5">+Remove(numero: int): bool</text></g></g><g transform="translate(-134,-606) scale(1,1)"><g><path fill="none" stroke="none"/><text fill="#000000" stroke="none" font-family="Arial" font-size="13px" font-style="normal" font-weight="normal" text-decoration="none" x="1125" y="993.5">+GetPoints(): vector&lt;Point&gt;</text></g></g><g transform="translate(-134,-606) scale(1,1)"><g><path fill="none" stroke="none"/><text fill="#000000" stroke="none" font-family="Arial" font-size="13px" font-style="normal" font-weight="normal" text-decoration="none" x="1125" y="1008.5">+SetPoints(points: vector&lt;Point&gt;): void</text></g></g><g transform="translate(-134,-606) scale(1,1)"><g><path fill="none" stroke="none"/><text fill="#000000" stroke="none" font-family="Arial" font-size="13px" font-style="normal" font-weight="normal" text-decoration="none" x="1125" y="1023.5">+GetPoint(numero: int): Point</text></g></g><g transform="translate(-134,-606) scale(1,1)"><g><path fill="none" stroke="none"/><text fill="#000000" stroke="none" font-family="Arial" font-size="13px" font-style="normal" font-weight="normal" text-decoration="none" x="1125" y="1038.5">+SetPoint(numero: int, point: Point): void</text></g></g><g transform="translate(-134,-606) scale(1,1)"><g><path fill="none" stroke="none"/><text fill="#000000" stroke="none" font-family="Arial" font-size="13px" font-style="italic" font-weight="normal" text-decoration="none" x="1125" y="1053.5">+Print(): void</text></g></g><g transform="translate(-134,-606) scale(1,1)"><g><path fill="none" stroke="none"/><text fill="#000000" stroke="none" font-family="Arial" font-size="13px" font-style="italic" font-weight="normal" text-decoration="none" x="1125" y="1068.5">+IsIn(point: Point): bool</text></g></g><g transform="translate(-134,-606) scale(1,1)"><g><path fill="none" stroke="none"/><text fill="#000000" stroke="none" font-family="Arial" font-size="13px" font-style="italic" font-weight="normal" text-decoration="none" x="1125" y="1083.5">+Move(point: Point): void</text></g></g><g transform="translate(-134,-606) scale(1,1)"><path fill="none" stroke="#000000" d="M 1119 877 L 1023 801" stroke-miterlimit="10"/></g><g transform="translate(-134,-606) scale(1,1)"><path fill="#FFFFFF" stroke="none" d="M 1044.161725706002 807.0150947743103 L 1023 801 L 1033.710285443929 820.2169140527183"/></g><g transform="translate(-134,-606) scale(1,1)"><path fill="none" stroke="#000000" d="M 1044.161725706002 807.0150947743103 L 1023 801 L 1033.710285443929 820.2169140527183 L 1044.161725706002 807.0150947743103" stroke-miterlimit="10"/></g><g transform="translate(-134,-606) scale(1,1)"><rect fill="#C0C0C0" stroke="none" x="503" y="623" width="284" height="220" opacity="0.2"/></g><g transform="translate(-134,-606) scale(1,1)"><rect fill="#ffffff" stroke="none" x="496" y="616" width="284" height="220"/></g><g transform="translate(-134,-606) scale(1,1)"><path fill="none" stroke="#000000" d="M 496 616 L 780 616 L 780 836 L 496 836 L 496 616 Z Z" stroke-miterlimit="10"/></g><g transform="translate(-134,-606) scale(1,1)"><path fill="none" stroke="#000000" d="M 496 641 L 780 641" stroke-miterlimit="10"/></g><g transform="translate(-134,-606) scale(1,1)"><path fill="none" stroke="#000000" d="M 496 664 L 780 664" stroke-miterlimit="10"/></g><g transform="translate(-134,-606) scale(1,1)"><g><path fill="none" stroke="none"/><text fill="#000000" stroke="none" font-family="Arial" font-size="13px" font-style="italic" font-weight="bold" text-decoration="none" x="609" y="635.5">Ensemble</text></g></g><g transform="translate(-134,-606) scale(1,1)"><g><path fill="none" stroke="none"/><text fill="#000000" stroke="none" font-family="Arial" font-size="13px" font-style="normal" font-weight="normal" text-decoration="none" x="501" y="658.5">-figures: map&lt;string, Figure&gt;</text></g></g><g transform="translate(-134,-606) scale(1,1)"><g><path fill="none" stroke="none"/><text fill="#000000" stroke="none" font-family="Arial" font-size="13px" font-style="normal" font-weight="normal" text-decoration="none" x="501" y="681.5">#Ensemble()</text></g></g><g transform="translate(-134,-606) scale(1,1)"><g><path fill="none" stroke="none"/><text fill="#000000" stroke="none" font-family="Arial" font-size="13px" font-style="normal" font-weight="normal" text-decoration="none" x="501" y="696.5">+~Ensemble()</text></g></g><g transform="translate(-134,-606) scale(1,1)"><g><path fill="none" stroke="none"/><text fill="#000000" stroke="none" font-family="Arial" font-size="13px" font-style="normal" font-weight="normal" text-decoration="none" x="501" y="711.5">+Add(figure: Figure): void</text></g></g><g transform="translate(-134,-606) scale(1,1)"><g><path fill="none" stroke="none"/><text fill="#000000" stroke="none" font-family="Arial" font-size="13px" font-style="normal" font-weight="normal" text-decoration="none" x="501" y="726.5">+Remove(name: string): bool</text></g></g><g transform="translate(-134,-606) scale(1,1)"><g><path fill="none" stroke="none"/><text fill="#000000" stroke="none" font-family="Arial" font-size="13px" font-style="normal" font-weight="normal" text-decoration="none" x="501" y="741.5">+GetFigures(): map&lt;string, Figure&gt;</text></g></g><g transform="translate(-134,-606) scale(1,1)"><g><path fill="none" stroke="none"/><text fill="#000000" stroke="none" font-family="Arial" font-size="13px" font-style="normal" font-weight="normal" text-decoration="none" x="501" y="756.5">+SetFigures(figures: map&lt;string, Figure&gt;): void</text></g></g><g transform="translate(-134,-606) scale(1,1)"><g><path fill="none" stroke="none"/><text fill="#000000" stroke="none" font-family="Arial" font-size="13px" font-style="normal" font-weight="normal" text-decoration="none" x="501" y="771.5">+GetFigure(name: string): Figure</text></g></g><g transform="translate(-134,-606) scale(1,1)"><g><path fill="none" stroke="none"/><text fill="#000000" stroke="none" font-family="Arial" font-size="13px" font-style="normal" font-weight="normal" text-decoration="none" x="501" y="786.5">+SetFigure(name: string, figure: Figure): void</text></g></g><g transform="translate(-134,-606) scale(1,1)"><g><path fill="none" stroke="none"/><text fill="#000000" stroke="none" font-family="Arial" font-size="13px" font-style="italic" font-weight="normal" text-decoration="none" x="501" y="801.5">+Print(): void</text></g></g><g transform="translate(-134,-606) scale(1,1)"><g><path fill="none" stroke="none"/><text fill="#000000" stroke="none" font-family="Arial" font-size="13px" font-style="italic" font-weight="normal" text-decoration="none" x="501" y="816.5">+IsIn(point: Point): bool</text></g></g><g transform="translate(-134,-606) scale(1,1)"><g><path fill="none" stroke="none"/><text fill="#000000" stroke="none" font-family="Arial" font-size="13px" font-style="italic" font-weight="normal" text-decoration="none" x="501" y="831.5">+Move(point: Point): void</text></g></g><g transform="translate(-134,-606) scale(1,1)"><path fill="none" stroke="#000000" d="M 781 723 L 815 722" stroke-miterlimit="10"/></g><g transform="translate(-134,-606) scale(1,1)"><path fill="#FFFFFF" stroke="none" d="M 794.9309474858829 731.0129424266225 L 815 722 L 794.4359241669702 714.1821495835876"/></g><g transform="translate(-134,-606) scale(1,1)"><path fill="none" stroke="#000000" d="M 794.9309474858829 731.0129424266225 L 815 722 L 794.4359241669702 714.1821495835876 L 794.9309474858829 731.0129424266225" stroke-miterlimit="10"/></g><g transform="translate(-134,-606) scale(1,1)"><rect fill="#C0C0C0" stroke="none" x="151" y="623" width="284" height="117" opacity="0.2"/></g><g transform="translate(-134,-606) scale(1,1)"><rect fill="#ffffff" stroke="none" x="144" y="616" width="284" height="117"/></g><g transform="translate(-134,-606) scale(1,1)"><path fill="none" stroke="#000000" d="M 144 616 L 428 616 L 428 733 L 144 733 L 144 616 Z Z" stroke-miterlimit="10"/></g><g transform="translate(-134,-606) scale(1,1)"><path fill="none" stroke="#000000" d="M 144 641 L 428 641" stroke-miterlimit="10"/></g><g transform="translate(-134,-606) scale(1,1)"><path fill="none" stroke="#000000" d="M 144 651 L 428 651" stroke-miterlimit="10"/></g><g transform="translate(-134,-606) scale(1,1)"><g><path fill="none" stroke="none"/><text fill="#000000" stroke="none" font-family="Arial" font-size="13px" font-style="normal" font-weight="bold" text-decoration="none" x="269.5" y="635.5">Union</text></g></g><g transform="translate(-134,-606) scale(1,1)"><g><path fill="none" stroke="none"/><text fill="#000000" stroke="none" font-family="Arial" font-size="13px" font-style="normal" font-weight="normal" text-decoration="none" x="149" y="668.5">+Union()</text></g></g><g transform="translate(-134,-606) scale(1,1)"><g><path fill="none" stroke="none"/><text fill="#000000" stroke="none" font-family="Arial" font-size="13px" font-style="normal" font-weight="normal" text-decoration="none" x="149" y="683.5">+~Union()</text></g></g><g transform="translate(-134,-606) scale(1,1)"><g><path fill="none" stroke="none"/><text fill="#000000" stroke="none" font-family="Arial" font-size="13px" font-style="italic" font-weight="normal" text-decoration="none" x="149" y="698.5">+Print(): void</text></g></g><g transform="translate(-134,-606) scale(1,1)"><g><path fill="none" stroke="none"/><text fill="#000000" stroke="none" font-family="Arial" font-size="13px" font-style="italic" font-weight="normal" text-decoration="none" x="149" y="713.5">+IsIn(point: Point): bool</text></g></g><g transform="translate(-134,-606) scale(1,1)"><g><path fill="none" stroke="none"/><text fill="#000000" stroke="none" font-family="Arial" font-size="13px" font-style="italic" font-weight="normal" text-decoration="none" x="149" y="728.5">+Move(point: Point): void</text></g></g><g transform="translate(-134,-606) scale(1,1)"><rect fill="#C0C0C0" stroke="none" x="151" y="783" width="197.7666015625" height="117" opacity="0.2"/></g><g transform="translate(-134,-606) scale(1,1)"><rect fill="#ffffff" stroke="none" x="144" y="776" width="197.7666015625" height="117"/></g><g transform="translate(-134,-606) scale(1,1)"><path fill="none" stroke="#000000" d="M 144 776 L 341.7666015625 776 L 341.7666015625 893 L 144 893 L 144 776 Z Z" stroke-miterlimit="10"/></g><g transform="translate(-134,-606) scale(1,1)"><path fill="none" stroke="#000000" d="M 144 801 L 341.7666015625 801" stroke-miterlimit="10"/></g><g transform="translate(-134,-606) scale(1,1)"><path fill="none" stroke="#000000" d="M 144 811 L 341.7666015625 811" stroke-miterlimit="10"/></g><g transform="translate(-134,-606) scale(1,1)"><g><path fill="none" stroke="none"/><text fill="#000000" stroke="none" font-family="Arial" font-size="13px" font-style="normal" font-weight="bold" text-decoration="none" x="208.88330078125" y="795.5">Intersection</text></g></g><g transform="translate(-134,-606) scale(1,1)"><g><path fill="none" stroke="none"/><text fill="#000000" stroke="none" font-family="Arial" font-size="13px" font-style="normal" font-weight="normal" text-decoration="none" x="149" y="828.5">+Intersection()</text></g></g><g transform="translate(-134,-606) scale(1,1)"><g><path fill="none" stroke="none"/><text fill="#000000" stroke="none" font-family="Arial" font-size="13px" font-style="normal" font-weight="normal" text-decoration="none" x="149" y="843.5">+~Intersection()</text></g></g><g transform="translate(-134,-606) scale(1,1)"><g><path fill="none" stroke="none"/><text fill="#000000" stroke="none" font-family="Arial" font-size="13px" font-style="italic" font-weight="normal" text-decoration="none" x="149" y="858.5">+Print(): void</text></g></g><g transform="translate(-134,-606) scale(1,1)"><g><path fill="none" stroke="none"/><text fill="#000000" stroke="none" font-family="Arial" font-size="13px" font-style="italic" font-weight="normal" text-decoration="none" x="149" y="873.5">+IsIn(point: Point): bool</text></g></g><g transform="translate(-134,-606) scale(1,1)"><g><path fill="none" stroke="none"/><text fill="#000000" stroke="none" font-family="Arial" font-size="13px" font-style="italic" font-weight="normal" text-decoration="none" x="149" y="888.5">+Move(point: Point): void</text></g></g><g transform="translate(-134,-606) scale(1,1)"><path fill="none" stroke="#000000" d="M 429 695 L 495 705" stroke-miterlimit="10"/></g><g transform="translate(-134,-606) scale(1,1)"><path fill="#FFFFFF" stroke="none" d="M 473.64279479844583 710.2791842152654 L 495 705 L 476.16522841704125 693.6311223325356"/></g><g transform="translate(-134,-606) scale(1,1)"><path fill="none" stroke="#000000" d="M 473.64279479844583 710.2791842152654 L 495 705 L 476.16522841704125 693.6311223325356 L 473.64279479844583 710.2791842152654" stroke-miterlimit="10"/></g><g transform="translate(-134,-606) scale(1,1)"><path fill="none" stroke="#000000" d="M 343 807 L 495 765" stroke-miterlimit="10"/></g><g transform="translate(-134,-606) scale(1,1)"><path fill="#FFFFFF" stroke="none" d="M 477.6510803805712 778.5283032209734 L 495 765 L 473.16650634534346 762.2984162363397"/></g><g transform="translate(-134,-606) scale(1,1)"><path fill="none" stroke="#000000" d="M 477.6510803805712 778.5283032209734 L 495 765 L 473.16650634534346 762.2984162363397 L 477.6510803805712 778.5283032209734" stroke-miterlimit="10"/></g></g></svg>